<svg id="visual" viewBox="0 0 1200 600" width="1200" height="600" xmlns="http://www.w3.org/2000/svg" xmlns:xlink="http://www.w3.org/1999/xlink" version="1.1"><path d="M0 136L28.5 134.5C57 133 114 130 171.2 126C228.3 122 285.7 117 342.8 116C400 115 457 118 514.2 119C571.3 120 628.7 119 685.8 118C743 117 800 116 857.2 119.3C914.3 122.7 971.7 130.3 1028.8 133.3C1086 136.3 1143 134.7 1171.5 133.8L1200 133L1200 0L1171.5 0C1143 0 1086 0 1028.8 0C971.7 0 914.3 0 857.2 0C800 0 743 0 685.8 0C628.7 0 571.3 0 514.2 0C457 0 400 0 342.8 0C285.7 0 228.3 0 171.2 0C114 0 57 0 28.5 0L0 0Z" fill="#760000"></path><path d="M0 117L28.5 114.2C57 111.3 114 105.7 171.2 105C228.3 104.3 285.7 108.7 342.8 106.7C400 104.7 457 96.3 514.2 93.3C571.3 90.3 628.7 92.7 685.8 94.7C743 96.7 800 98.3 857.2 97.2C914.3 96 971.7 92 1028.8 94.7C1086 97.3 1143 106.7 1171.5 111.3L1200 116L1200 0L1171.5 0C1143 0 1086 0 1028.8 0C971.7 0 914.3 0 857.2 0C800 0 743 0 685.8 0C628.7 0 571.3 0 514.2 0C457 0 400 0 342.8 0C285.7 0 228.3 0 171.2 0C114 0 57 0 28.5 0L0 0Z" fill="#880002"></path><path d="M0 82L28.5 83.5C57 85 114 88 171.2 87C228.3 86 285.7 81 342.8 81.3C400 81.7 457 87.3 514.2 89.8C571.3 92.3 628.7 91.7 685.8 90.5C743 89.3 800 87.7 857.2 85.3C914.3 83 971.7 80 1028.8 79.7C1086 79.3 1143 81.7 1171.5 82.8L1200 84L1200 0L1171.5 0C1143 0 1086 0 1028.8 0C971.7 0 914.3 0 857.2 0C800 0 743 0 685.8 0C628.7 0 571.3 0 514.2 0C457 0 400 0 342.8 0C285.7 0 228.3 0 171.2 0C114 0 57 0 28.5 0L0 0Z" fill="#9b0004"></path><path d="M0 69L28.5 69.3C57 69.7 114 70.3 171.2 69.7C228.3 69 285.7 67 342.8 65.3C400 63.7 457 62.3 514.2 60.2C571.3 58 628.7 55 685.8 55.5C743 56 800 60 857.2 62.2C914.3 64.3 971.7 64.7 1028.8 63.8C1086 63 1143 61 1171.5 60L1200 59L1200 0L1171.5 0C1143 0 1086 0 1028.8 0C971.7 0 914.3 0 857.2 0C800 0 743 0 685.8 0C628.7 0 571.3 0 514.2 0C457 0 400 0 342.8 0C285.7 0 228.3 0 171.2 0C114 0 57 0 28.5 0L0 0Z" fill="#ae0004"></path><path d="M0 49L28.5 48.3C57 47.7 114 46.3 171.2 44.7C228.3 43 285.7 41 342.8 41.5C400 42 457 45 514.2 44.7C571.3 44.3 628.7 40.7 685.8 40.7C743 40.7 800 44.3 857.2 44.8C914.3 45.3 971.7 42.7 1028.8 42.8C1086 43 1143 46 1171.5 47.5L1200 49L1200 0L1171.5 0C1143 0 1086 0 1028.8 0C971.7 0 914.3 0 857.2 0C800 0 743 0 685.8 0C628.7 0 571.3 0 514.2 0C457 0 400 0 342.8 0C285.7 0 228.3 0 171.2 0C114 0 57 0 28.5 0L0 0Z" fill="#c10002"></path><path d="M0 23L28.5 23.2C57 23.3 114 23.7 171.2 24.3C228.3 25 285.7 26 342.8 25C400 24 457 21 514.2 19.8C571.3 18.7 628.7 19.3 685.8 19.5C743 19.7 800 19.3 857.2 21.2C914.3 23 971.7 27 1028.8 29.2C1086 31.3 1143 31.7 1171.5 31.8L1200 32L1200 0L1171.5 0C1143 0 1086 0 1028.8 0C971.7 0 914.3 0 857.2 0C800 0 743 0 685.8 0C628.7 0 571.3 0 514.2 0C457 0 400 0 342.8 0C285.7 0 228.3 0 171.2 0C114 0 57 0 28.5 0L0 0Z" fill="#d50000"></path></svg>