<svg id="visual" viewBox="0 0 1200 100" width="1200" height="100" xmlns="http://www.w3.org/2000/svg" xmlns:xlink="http://www.w3.org/1999/xlink" version="1.1"><path d="M0 75L28.5 74.2C57 73.3 114 71.7 171.2 69.5C228.3 67.3 285.7 64.7 342.8 64.2C400 63.7 457 65.3 514.2 65.8C571.3 66.3 628.7 65.7 685.8 65C743 64.3 800 63.7 857.2 65.5C914.3 67.3 971.7 71.7 1028.8 73.3C1086 75 1143 74 1171.5 73.5L1200 73L1200 0L1171.5 0C1143 0 1086 0 1028.8 0C971.7 0 914.3 0 857.2 0C800 0 743 0 685.8 0C628.7 0 571.3 0 514.2 0C457 0 400 0 342.8 0C285.7 0 228.3 0 171.2 0C114 0 57 0 28.5 0L0 0Z" fill="#760000"></path><path d="M0 64L28.5 62.5C57 61 114 58 171.2 57.8C228.3 57.7 285.7 60.3 342.8 59.3C400 58.3 457 53.7 514.2 51.8C571.3 50 628.7 51 685.8 52C743 53 800 54 857.2 53.3C914.3 52.7 971.7 50.3 1028.8 51.8C1086 53.3 1143 58.7 1171.5 61.3L1200 64L1200 0L1171.5 0C1143 0 1086 0 1028.8 0C971.7 0 914.3 0 857.2 0C800 0 743 0 685.8 0C628.7 0 571.3 0 514.2 0C457 0 400 0 342.8 0C285.7 0 228.3 0 171.2 0C114 0 57 0 28.5 0L0 0Z" fill="#880002"></path><path d="M0 45L28.5 45.8C57 46.7 114 48.3 171.2 47.8C228.3 47.3 285.7 44.7 342.8 44.8C400 45 457 48 514.2 49.3C571.3 50.7 628.7 50.3 685.8 49.7C743 49 800 48 857.2 46.7C914.3 45.3 971.7 43.7 1028.8 43.5C1086 43.3 1143 44.7 1171.5 45.3L1200 46L1200 0L1171.5 0C1143 0 1086 0 1028.8 0C971.7 0 914.3 0 857.2 0C800 0 743 0 685.8 0C628.7 0 571.3 0 514.2 0C457 0 400 0 342.8 0C285.7 0 228.3 0 171.2 0C114 0 57 0 28.5 0L0 0Z" fill="#9b0004"></path><path d="M0 38L28.5 38.2C57 38.3 114 38.7 171.2 38.3C228.3 38 285.7 37 342.8 36.2C400 35.3 457 34.7 514.2 33.3C571.3 32 628.7 30 685.8 30.2C743 30.3 800 32.7 857.2 34C914.3 35.3 971.7 35.7 1028.8 35.2C1086 34.7 1143 33.3 1171.5 32.7L1200 32L1200 0L1171.5 0C1143 0 1086 0 1028.8 0C971.7 0 914.3 0 857.2 0C800 0 743 0 685.8 0C628.7 0 571.3 0 514.2 0C457 0 400 0 342.8 0C285.7 0 228.3 0 171.2 0C114 0 57 0 28.5 0L0 0Z" fill="#ae0004"></path><path d="M0 27L28.5 26.7C57 26.3 114 25.7 171.2 24.7C228.3 23.7 285.7 22.3 342.8 22.5C400 22.7 457 24.3 514.2 24.2C571.3 24 628.7 22 685.8 22C743 22 800 24 857.2 24.3C914.3 24.7 971.7 23.3 1028.8 23.5C1086 23.7 1143 25.3 1171.5 26.2L1200 27L1200 0L1171.5 0C1143 0 1086 0 1028.8 0C971.7 0 914.3 0 857.2 0C800 0 743 0 685.8 0C628.7 0 571.3 0 514.2 0C457 0 400 0 342.8 0C285.7 0 228.3 0 171.2 0C114 0 57 0 28.5 0L0 0Z" fill="#c10002"></path><path d="M0 12L28.5 12.2C57 12.3 114 12.7 171.2 13.2C228.3 13.7 285.7 14.3 342.8 13.7C400 13 457 11 514.2 10.3C571.3 9.7 628.7 10.3 685.8 10.5C743 10.7 800 10.3 857.2 11.3C914.3 12.3 971.7 14.7 1028.8 15.8C1086 17 1143 17 1171.5 17L1200 17L1200 0L1171.5 0C1143 0 1086 0 1028.8 0C971.7 0 914.3 0 857.2 0C800 0 743 0 685.8 0C628.7 0 571.3 0 514.2 0C457 0 400 0 342.8 0C285.7 0 228.3 0 171.2 0C114 0 57 0 28.5 0L0 0Z" fill="#d50000"></path></svg>